<svg width="40" height="52" viewBox="0 0 40 52" fill="none" xmlns="http://www.w3.org/2000/svg">
<path d="M14.3439 35.82C17.8803 39.3564 21.32 42.7823 24.7183 46.1806C23.102 47.783 21.541 49.344 19.8557 51.0293C18.944 50.0761 18.0046 49.0677 17.0238 48.0869C12.6447 43.694 8.26568 39.315 3.88661 34.9359C-1.18316 29.8523 -1.3213 21.4948 3.63796 16.3283C6.69087 13.1511 9.86811 10.0843 12.9625 6.98999C14.5235 8.5648 16.0845 10.1396 17.7283 11.7973C16.8028 12.709 15.8082 13.6622 14.8274 14.643C12.8243 16.6322 10.8213 18.6215 8.83206 20.6383C6.00017 23.5116 6.04161 27.5868 8.88731 30.4463C9.10834 30.6673 9.28792 30.916 9.48132 31.1646C14.1505 26.4817 18.7091 21.8954 23.2678 17.3229C24.8978 18.9944 26.4588 20.5692 28.0198 22.1717C23.5579 26.6336 18.9716 31.2061 14.3439 35.82Z" fill="white"/>
<path d="M15.2971 4.73823C16.8719 3.16343 18.4329 1.61625 20.0492 0C20.1597 0.110513 20.3254 0.248653 20.4636 0.400608C24.8565 4.8073 29.2632 9.20018 33.6422 13.6069C34.8579 14.8225 36.1426 15.9829 37.2063 17.3367C41.24 22.4617 41.0051 30.1838 35.8525 35.2259C32.993 38.0164 30.2025 40.8621 27.3706 43.6802C27.3154 43.7354 27.2325 43.7907 27.191 43.8183C25.6301 42.2435 24.0829 40.6825 22.3976 38.9834C23.0883 38.3341 23.848 37.6572 24.5802 36.9251C26.8043 34.7148 29.0283 32.5046 31.2248 30.2805C33.9461 27.5315 33.9461 23.4149 31.2109 20.6659C26.0445 15.4718 20.8642 10.3053 15.6839 5.12503C15.5596 5.01451 15.4214 4.86256 15.2971 4.73823Z" fill="white"/>
</svg>
